<?xml version="1.0" encoding="UTF-8"?>
<svg width="256px" height="256px" viewBox="0 0 256 256" version="1.1" xmlns="http://www.w3.org/2000/svg">
    <g stroke="none" stroke-width="1" fill="none" fill-rule="evenodd">
        <g fill="#F7DF1E" fill-rule="nonzero">
            <path d="M0,0 L256,0 L256,256 L0,256 L0,0 Z"></path>
            <path d="M135.993,214.04 C135.993,230.4 125.293,238.12 107.893,238.12 C94.693,238.12 85.693,231.16 80.293,220.12 L96.493,211.96 C99.493,218.2 103.693,222.76 112.093,222.76 C120.093,222.76 125.293,218.68 125.293,211.96 C125.293,203.8 118.093,201.4 107.293,197.8 C93.493,193.12 83.293,187.48 83.293,174.04 C83.293,161.8 93.493,152.68 107.293,152.68 C118.093,152.68 126.493,157.24 131.293,166.12 L115.693,174.28 C113.293,169.72 109.693,167.32 103.693,167.32 C97.693,167.32 93.493,171.4 93.493,174.28 C93.493,180.28 97.693,182.68 107.293,186.28 C121.493,191.08 131.293,196.72 131.293,210.16 C131.293,223.6 120.493,230.68 107.293,230.68 C94.093,230.68 85.693,223.72 80.293,214.04 L135.993,214.04 Z" fill="#000000"></path>
        </g>
    </g>
</svg> 