<?xml version="1.0" encoding="UTF-8"?>
<svg width="256px" height="256px" viewBox="0 0 256 256" version="1.1" xmlns="http://www.w3.org/2000/svg">
    <g stroke="none" stroke-width="1" fill="none" fill-rule="evenodd">
        <g fill="#21759B" fill-rule="nonzero">
            <path d="M128,0 C57.307,0 0,57.307 0,128 C0,198.693 57.307,256 128,256 C198.693,256 256,198.693 256,128 C256,57.307 198.693,0 128,0 Z"></path>
            <path d="M128,48 C156.8,48 180,71.2 180,100 C180,128.8 156.8,152 128,152 C99.2,152 76,128.8 76,100 C76,71.2 99.2,48 128,48 Z" fill="#FFFFFF" opacity="0.2"></path>
            <path d="M128,208 C99.2,208 76,184.8 76,156 C76,127.2 99.2,104 128,104 C156.8,104 180,127.2 180,156 C180,184.8 156.8,208 128,208 Z" fill="#FFFFFF" opacity="0.2"></path>
        </g>
    </g>
</svg> 